<?xml version="1.0" encoding="utf-8"?>
<!-- Generator: Adobe Illustrator 16.0.0, SVG Export Plug-In . SVG Version: 6.00 Build 0)  -->
<!DOCTYPE svg PUBLIC "-//W3C//DTD SVG 1.1//EN" "http://www.w3.org/Graphics/SVG/1.1/DTD/svg11.dtd">
<svg version="1.1" id="Layer_1" xmlns="http://www.w3.org/2000/svg" xmlns:xlink="http://www.w3.org/1999/xlink" x="0px" y="0px"
	 width="576px" height="576px" viewBox="0 0 576 576" enable-background="new 0 0 576 576" xml:space="preserve">
<polygon fill="#DD0031" points="280,141.885 129.479,195.698 151.316,396.134 280,467.885 "/>
<polygon fill="#C3002F" points="280,141.885 430.521,195.698 408.685,396.134 280,467.885 "/>
<g>
	<polyline fill="none" points="360.003,231.574 360.314,231.036 364.433,224.017 	"/>
</g>
<g>
	<polyline fill="none" points="279.22,224.017 279.22,231.036 279.22,231.574 	"/>
</g>
<polygon fill="#FFFFFF" points="367.685,224.017 167.811,224.017 178.48,242.492 266.984,395.782 269.276,399.753 280,418.33 
	280,382.454 279.719,381.963 279.22,381.098 277.419,377.978 234.54,303.715 320.96,303.715 331.474,285.777 224.183,285.777 
	199.194,242.492 198.882,241.954 357.172,241.954 "/>
</svg>
